<svg width="500" height="500" viewBox="0 0 500 500" fill="none" xmlns="http://www.w3.org/2000/svg">
<path d="M156.214 37.516H34.279V239.354H156.214V37.516Z" fill="#E0E0E0"/>
<path d="M152.159 37.516H30.224V239.354H152.159V37.516Z" fill="#EBEBEB"/>
<path d="M146.967 41.609H35.416V235.261H146.967V41.609Z" fill="#FAFAFA"/>
<path d="M125.247 66.773H56.653V210.097H125.247V66.773Z" fill="#FFC339"/>
<path d="M56.653 159.379C56.494 145.991 68.532 132.92 81.791 131.051C88.113 130.16 94.83 131.414 100.737 128.992C111.281 124.668 114.636 110.659 125.247 106.504L125.731 210.097H56.653V159.379Z" fill="#279D69"/>
<path d="M424.107 93.6872L414.099 93.7412L414.368 143.54L424.376 143.486L424.107 93.6872Z" fill="#E0E0E0"/>
<path d="M353.306 93.8532L327.389 93.9906L327.535 121.483L353.452 121.345L353.306 93.8532Z" fill="#EBEBEB"/>
<path d="M379.108 93.6813L353.191 93.8212L353.339 121.313L379.256 121.173L379.108 93.6813Z" fill="#F5F5F5"/>
<path d="M327.429 101.566C344.652 101.708 361.918 101.608 379.139 101.328C379.493 101.323 379.491 100.779 379.136 100.777C361.913 100.682 344.647 100.766 327.427 101.093C327.123 101.1 327.125 101.563 327.429 101.566Z" fill="#E0E0E0"/>
<path d="M358.326 120.854L311.24 121.108L311.361 143.512L358.447 143.258L358.326 120.854Z" fill="#EBEBEB"/>
<path d="M405.189 120.601L358.103 120.855L358.224 143.259L405.31 143.005L405.189 120.601Z" fill="#F5F5F5"/>
<path d="M311.263 127.351C342.543 127.705 373.933 127.388 405.212 126.887C405.566 126.881 405.564 126.338 405.209 126.336C373.927 126.171 342.535 126.189 311.261 126.878C310.957 126.886 310.959 127.348 311.263 127.351Z" fill="#E0E0E0"/>
<path d="M476.079 143.524H293.654V151.55H476.079V143.524Z" fill="#E0E0E0"/>
<path d="M330.927 147.383H323.521V174.771H330.927V147.383Z" fill="#E0E0E0"/>
<path d="M441.477 147.383H434.071V174.771H441.477V147.383Z" fill="#E0E0E0"/>
<path d="M433.872 75.1176L423.864 75.1716L424.234 143.662L434.242 143.608L433.872 75.1176Z" fill="#EBEBEB"/>
<path d="M449.509 87.8722L433.958 87.9562L434.258 143.46L449.809 143.376L449.509 87.8722Z" fill="#F5F5F5"/>
<path d="M449.395 98.578C449.395 98.727 445.914 98.847 441.62 98.847C437.325 98.847 433.844 98.726 433.844 98.578C433.844 98.429 437.325 98.309 441.62 98.309C445.914 98.308 449.395 98.429 449.395 98.578Z" fill="#E0E0E0"/>
<path d="M449.395 96.246C449.395 96.395 445.914 96.515 441.62 96.515C437.325 96.515 433.844 96.394 433.844 96.246C433.844 96.097 437.325 95.977 441.62 95.977C445.914 95.977 449.395 96.097 449.395 96.246Z" fill="#E0E0E0"/>
<path d="M449.395 135.037C449.395 135.186 445.914 135.306 441.62 135.306C437.325 135.306 433.844 135.185 433.844 135.037C433.844 134.889 437.325 134.767 441.62 134.767C445.914 134.768 449.395 134.888 449.395 135.037Z" fill="#E0E0E0"/>
<path d="M449.395 132.705C449.395 132.854 445.914 132.974 441.62 132.974C437.325 132.974 433.844 132.854 433.844 132.705C433.844 132.556 437.325 132.436 441.62 132.436C445.914 132.436 449.395 132.557 449.395 132.705Z" fill="#E0E0E0"/>
<path d="M441.87 127.618C441.721 127.618 441.6 122.018 441.6 115.112C441.6 108.204 441.721 102.605 441.87 102.605C442.019 102.605 442.139 108.204 442.139 115.112C442.14 122.018 442.019 127.618 441.87 127.618Z" fill="#E0E0E0"/>
<path d="M466.491 101.514H449.564V143.408H466.491V101.514Z" fill="#EBEBEB"/>
<path d="M431.588 86.829C431.588 88.418 430.3 89.705 428.712 89.705C427.123 89.705 425.836 88.417 425.836 86.829C425.836 85.241 427.124 83.953 428.712 83.953C430.3 83.952 431.588 85.24 431.588 86.829Z" fill="#E0E0E0"/>
<path d="M429.6 94.74H427.822V135.484H429.6V94.74Z" fill="#E0E0E0"/>
<path d="M173.788 412.597C173.788 412.597 164.62 419.582 173.404 428.811C173.554 428.969 173.767 429.058 173.985 429.057L254.089 428.59C254.089 428.59 260.93 420.917 255.254 412.077L173.788 412.597Z" fill="#EBEBEB"/>
<path d="M236.385 419.888C236.385 419.977 226.41 420.05 214.108 420.05C201.802 420.05 191.829 419.978 191.829 419.888C191.829 419.799 201.802 419.726 214.108 419.726C226.41 419.726 236.385 419.799 236.385 419.888Z" fill="#E0E0E0"/>
<path d="M223.925 422.786C223.925 422.875 219.235 422.948 213.452 422.948C207.666 422.948 202.978 422.876 202.978 422.786C202.978 422.697 207.667 422.624 213.452 422.624C219.235 422.624 223.925 422.696 223.925 422.786Z" fill="#E0E0E0"/>
<path d="M244.575 428.333C244.523 428.319 244.751 427.413 244.999 425.929C245.249 424.447 245.481 422.377 245.461 420.085C245.437 417.792 245.166 415.727 244.888 414.25C244.612 412.771 244.366 411.87 244.418 411.855C244.439 411.849 244.521 412.068 244.651 412.471C244.784 412.873 244.944 413.465 245.112 414.204C245.45 415.68 245.76 417.764 245.784 420.082C245.803 422.399 245.533 424.488 245.223 425.971C245.069 426.713 244.921 427.308 244.795 427.712C244.674 428.118 244.596 428.339 244.575 428.333Z" fill="#E0E0E0"/>
<path d="M250.553 411.976C250.573 411.966 250.698 412.173 250.91 412.558C251.019 412.749 251.144 412.988 251.266 413.275C251.391 413.561 251.549 413.882 251.675 414.255C251.961 414.989 252.224 415.893 252.437 416.913C252.633 417.937 252.77 419.079 252.786 420.284C252.789 421.489 252.671 422.634 252.492 423.66C252.295 424.684 252.047 425.592 251.773 426.33C251.653 426.705 251.5 427.028 251.38 427.316C251.263 427.606 251.141 427.846 251.036 428.039C250.831 428.428 250.709 428.637 250.689 428.627C250.633 428.6 251.08 427.737 251.557 426.257C251.801 425.519 252.022 424.619 252.2 423.609C252.361 422.596 252.468 421.471 252.464 420.286C252.448 419.102 252.323 417.979 252.146 416.969C251.952 415.962 251.716 415.066 251.461 414.331C250.959 412.86 250.498 412.004 250.553 411.976Z" fill="#E0E0E0"/>
<path d="M186.427 428.44C186.408 428.452 186.276 428.261 186.054 427.904C185.939 427.727 185.808 427.506 185.68 427.236C185.549 426.968 185.383 426.669 185.252 426.315C184.953 425.623 184.684 424.763 184.471 423.788C184.278 422.81 184.152 421.715 184.16 420.561C184.183 419.408 184.337 418.316 184.557 417.343C184.796 416.374 185.088 415.521 185.406 414.837C185.546 414.487 185.72 414.193 185.858 413.928C185.993 413.661 186.131 413.444 186.25 413.27C186.482 412.919 186.619 412.732 186.637 412.745C186.692 412.779 186.176 413.553 185.616 414.927C185.33 415.611 185.066 416.456 184.847 417.409C184.648 418.367 184.505 419.436 184.483 420.565C184.475 421.694 184.589 422.767 184.762 423.729C184.955 424.688 185.196 425.539 185.464 426.23C185.988 427.62 186.482 428.408 186.427 428.44Z" fill="#E0E0E0"/>
<path d="M177.778 430.394C177.759 430.406 177.614 430.19 177.366 429.787C177.239 429.587 177.092 429.338 176.947 429.035C176.799 428.734 176.613 428.397 176.463 428.002C176.123 427.227 175.807 426.265 175.546 425.175C175.305 424.081 175.131 422.856 175.095 421.561C175.074 420.265 175.194 419.034 175.386 417.93C175.598 416.829 175.871 415.854 176.177 415.064C176.31 414.662 176.481 414.318 176.615 414.01C176.746 413.7 176.882 413.445 177 413.24C177.229 412.827 177.365 412.605 177.384 412.615C177.442 412.645 176.929 413.556 176.392 415.14C176.117 415.929 175.872 416.895 175.679 417.981C175.506 419.07 175.398 420.281 175.418 421.554C175.454 422.826 175.616 424.031 175.837 425.111C176.078 426.187 176.366 427.141 176.675 427.917C177.282 429.473 177.834 430.361 177.778 430.394Z" fill="#E0E0E0"/>
<path d="M251.15 452.985C251.15 453.592 251.15 468.314 251.15 468.314H221.488V452.985H251.15Z" fill="#EBEBEB"/>
<path d="M155.352 460.792C155.357 460.927 155.363 461.063 155.37 461.198C155.611 465.836 159.549 469.423 164.194 469.423H252.533V468.314H231.562C227.329 468.314 223.897 464.882 223.897 460.65C223.897 456.417 227.329 452.986 231.562 452.986H252.533V451.357L164.168 451.656C159.18 451.672 155.17 455.807 155.352 460.792Z" fill="#E0E0E0"/>
<path d="M251.15 460.854C251.15 460.943 245.051 461.016 237.53 461.016C230.006 461.016 223.908 460.944 223.908 460.854C223.908 460.765 230.006 460.692 237.53 460.692C245.051 460.693 251.15 460.765 251.15 460.854Z" fill="#E0E0E0"/>
<path d="M250.721 464.309C250.721 464.398 244.95 464.471 237.833 464.471C230.713 464.471 224.944 464.399 224.944 464.309C224.944 464.22 230.714 464.147 237.833 464.147C244.95 464.147 250.721 464.219 250.721 464.309Z" fill="#E0E0E0"/>
<path d="M251.15 467.467C251.15 467.556 245.961 467.629 239.563 467.629C233.162 467.629 227.974 467.557 227.974 467.467C227.974 467.378 233.161 467.305 239.563 467.305C245.961 467.306 251.15 467.378 251.15 467.467Z" fill="#E0E0E0"/>
<path d="M251.15 457.751C251.15 457.84 245.176 457.913 237.808 457.913C230.438 457.913 224.465 457.841 224.465 457.751C224.465 457.662 230.438 457.589 237.808 457.589C245.176 457.589 251.15 457.662 251.15 457.751Z" fill="#E0E0E0"/>
<path d="M250.721 454.647C250.721 454.736 245.404 454.809 238.846 454.809C232.286 454.809 226.97 454.736 226.97 454.647C226.97 454.558 232.286 454.485 238.846 454.485C245.403 454.486 250.721 454.558 250.721 454.647Z" fill="#E0E0E0"/>
<path d="M166.055 451.912C166.104 451.962 165.192 452.653 164.178 454.144C163.166 455.609 162.134 457.988 162.162 460.736C162.198 463.485 163.287 465.839 164.333 467.28C165.382 468.747 166.31 469.416 166.262 469.467C166.251 469.481 166.014 469.326 165.625 468.997C165.234 468.669 164.706 468.144 164.149 467.416C163.035 465.982 161.876 463.576 161.839 460.741C161.809 457.906 162.911 455.474 163.99 454.014C164.529 453.273 165.045 452.736 165.428 452.398C165.811 452.058 166.044 451.898 166.055 451.912Z" fill="#F5F5F5"/>
<path d="M163.068 451.585C163.117 451.635 162.205 452.326 161.191 453.817C160.179 455.283 159.146 457.661 159.175 460.409C159.211 463.158 160.3 465.512 161.346 466.953C162.395 468.42 163.323 469.089 163.275 469.14C163.264 469.154 163.027 468.999 162.638 468.67C162.247 468.342 161.719 467.817 161.162 467.089C160.048 465.655 158.889 463.249 158.852 460.414C158.822 457.579 159.924 455.147 161.004 453.687C161.543 452.946 162.059 452.409 162.442 452.071C162.824 451.731 163.057 451.571 163.068 451.585Z" fill="#F5F5F5"/>
<path d="M223.093 451.912C223.142 451.962 222.23 452.653 221.216 454.144C220.204 455.609 219.171 457.988 219.2 460.736C219.236 463.485 220.325 465.839 221.371 467.28C222.42 468.747 223.348 469.416 223.3 469.467C223.289 469.481 223.052 469.326 222.662 468.997C222.271 468.669 221.743 468.144 221.186 467.416C220.072 465.982 218.913 463.576 218.876 460.741C218.846 457.906 219.947 455.474 221.027 454.014C221.566 453.273 222.082 452.736 222.465 452.398C222.848 452.058 223.081 451.898 223.093 451.912Z" fill="#F5F5F5"/>
<path d="M220.106 451.585C220.155 451.635 219.243 452.326 218.229 453.817C217.217 455.283 216.184 457.661 216.213 460.409C216.249 463.158 217.338 465.512 218.384 466.953C219.433 468.42 220.361 469.089 220.313 469.14C220.302 469.154 220.065 468.999 219.675 468.67C219.284 468.342 218.756 467.817 218.199 467.089C217.085 465.655 215.926 463.249 215.889 460.414C215.859 457.579 216.961 455.147 218.041 453.687C218.58 452.946 219.096 452.409 219.479 452.071C219.861 451.731 220.094 451.571 220.106 451.585Z" fill="#F5F5F5"/>
<path d="M176.109 462.947C176.081 460.869 176.053 458.792 176.025 456.714C176.018 456.171 176.008 455.613 175.806 455.109C175.604 454.605 175.164 454.158 174.623 454.11C173.842 453.765 172.626 454.415 172.08 455.314C171.535 456.214 171.475 457.317 171.467 458.368C171.455 460.012 171.535 461.657 171.706 463.292C171.787 464.069 171.897 464.868 172.286 465.546C172.675 466.224 173.409 466.761 174.188 466.689C174.96 466.618 175.581 465.969 175.853 465.243C176.126 464.518 176.119 463.722 176.109 462.947Z" fill="#F5F5F5"/>
<path d="M210.417 461.154C210.417 461.243 204.031 461.316 196.155 461.316C188.276 461.316 181.891 461.244 181.891 461.154C181.891 461.065 188.276 460.992 196.155 460.992C204.031 460.992 210.417 461.065 210.417 461.154Z" fill="#F5F5F5"/>
<path d="M170.191 451.299L170.028 436.769H177.937L178.21 451.299H170.191Z" fill="#F5F5F5"/>
<path d="M177.47 439.354C177.47 439.443 175.824 439.516 173.795 439.516C171.765 439.516 170.119 439.444 170.119 439.354C170.119 439.265 171.764 439.192 173.795 439.192C175.824 439.193 177.47 439.265 177.47 439.354Z" fill="#E0E0E0"/>
<path d="M177.47 441.597C177.47 441.686 175.824 441.759 173.795 441.759C171.765 441.759 170.119 441.687 170.119 441.597C170.119 441.508 171.764 441.435 173.795 441.435C175.824 441.435 177.47 441.508 177.47 441.597Z" fill="#E0E0E0"/>
<path d="M177.47 443.84C177.47 443.929 175.824 444.002 173.795 444.002C171.765 444.002 170.119 443.93 170.119 443.84C170.119 443.751 171.764 443.678 173.795 443.678C175.824 443.678 177.47 443.75 177.47 443.84Z" fill="#E0E0E0"/>
<path d="M177.47 446.082C177.47 446.171 175.824 446.244 173.795 446.244C171.765 446.244 170.119 446.171 170.119 446.082C170.119 445.993 171.764 445.92 173.795 445.92C175.824 445.92 177.47 445.993 177.47 446.082Z" fill="#E0E0E0"/>
<path d="M177.47 448.325C177.47 448.414 175.824 448.487 173.795 448.487C171.765 448.487 170.119 448.415 170.119 448.325C170.119 448.236 171.764 448.163 173.795 448.163C175.824 448.163 177.47 448.235 177.47 448.325Z" fill="#E0E0E0"/>
<path d="M169.608 436.384H257.269C258.351 441.196 258.199 446.49 257.269 452.089H169.982V451.021H175.316C176.707 451.021 177.835 449.893 177.835 448.502V439.811C177.835 438.42 176.707 437.292 175.316 437.292H169.608V436.384Z" fill="#EBEBEB"/>
<path d="M190.332 444.246H191.795C191.85 444.246 191.903 444.259 191.953 444.285C192.057 444.346 192.11 444.437 192.11 444.56C192.11 444.596 192.106 444.628 192.099 444.654C192.07 444.778 192.037 444.902 192 445.028C191.796 445.697 191.49 446.249 191.084 446.684C190.681 447.114 190.265 447.329 189.837 447.329C189.779 447.329 189.72 447.325 189.661 447.317C189.262 447.256 188.931 447.017 188.666 446.597C188.375 446.128 188.229 445.541 188.229 444.836C188.229 444.422 188.287 444.004 188.402 443.581C188.588 442.899 188.878 442.334 189.271 441.886C189.682 441.42 190.121 441.186 190.589 441.186C190.786 441.186 190.97 441.228 191.143 441.312C191.521 441.498 191.806 441.854 191.997 442.38C192.021 442.427 192.032 442.476 192.032 442.526C192.032 442.581 192.018 442.634 191.989 442.683C191.926 442.787 191.835 442.839 191.718 442.839C191.686 442.839 191.654 442.834 191.62 442.824C191.518 442.789 191.451 442.724 191.419 442.627L191.403 442.599C191.356 442.47 191.297 442.355 191.227 442.253C191.035 441.974 190.802 441.836 190.527 441.836C190.367 441.836 190.205 441.895 190.044 442.013C189.737 442.233 189.471 442.615 189.246 443.161C189.015 443.722 188.9 444.271 188.9 444.811C188.9 445.33 188.984 445.762 189.152 446.107C189.338 446.489 189.592 446.68 189.915 446.68C190.132 446.678 190.368 446.536 190.622 446.254C190.935 445.905 191.184 445.451 191.373 444.896C190.7 444.896 190.35 444.892 190.324 444.884C190.096 444.848 189.979 444.729 189.974 444.53C189.979 444.491 189.99 444.455 190.005 444.424C190.06 444.305 190.169 444.246 190.332 444.246Z" fill="#FAFAFA"/>
<path d="M195.309 441.391C195.322 441.42 195.335 441.455 195.348 441.497C195.41 441.712 195.754 443.523 196.38 446.929C196.39 446.955 196.395 446.981 196.395 447.007C196.395 447.062 196.381 447.116 196.352 447.168C196.289 447.275 196.203 447.329 196.09 447.329C196.075 447.329 196.058 447.328 196.04 447.325C195.915 447.304 195.834 447.232 195.798 447.108L195.449 445.303H193.648L192.782 447.114C192.775 447.134 192.765 447.154 192.753 447.174C192.67 447.277 192.58 447.328 192.482 447.328C192.421 447.328 192.364 447.311 192.311 447.277C192.215 447.212 192.167 447.123 192.167 447.013C192.167 446.982 192.174 446.95 192.187 446.919C192.241 446.793 192.331 446.595 192.455 446.324C193.715 443.572 194.469 441.949 194.715 441.453C194.786 441.309 194.887 441.236 195.019 441.233C195.147 441.237 195.243 441.289 195.309 441.391ZM194.916 442.606L193.942 444.655H195.317L194.916 442.606Z" fill="#FAFAFA"/>
<path d="M200.198 447.329H197.556C197.495 447.329 197.439 447.312 197.387 447.278C197.311 447.223 197.261 447.112 197.238 446.947V446.943C197.238 446.836 197.481 445.033 197.967 441.534C197.97 441.494 197.975 441.455 197.983 441.418C198.038 441.289 198.133 441.225 198.267 441.225C198.32 441.225 198.368 441.237 198.413 441.261C198.523 441.319 198.579 441.412 198.579 441.54C198.556 441.778 198.496 442.273 198.399 443.023C198.097 445.332 197.939 446.551 197.926 446.679H200.171C200.232 446.679 200.288 446.69 200.34 446.71C200.474 446.765 200.541 446.864 200.541 447.005C200.541 447.04 200.536 447.074 200.525 447.107C200.48 447.23 200.371 447.303 200.198 447.329Z" fill="#FAFAFA"/>
<path d="M203.811 441.391C203.824 441.42 203.837 441.455 203.85 441.497C203.912 441.712 204.256 443.523 204.882 446.929C204.892 446.955 204.897 446.981 204.897 447.007C204.897 447.062 204.883 447.116 204.854 447.168C204.791 447.275 204.705 447.329 204.592 447.329C204.577 447.329 204.56 447.328 204.542 447.325C204.417 447.304 204.336 447.232 204.3 447.108L203.951 445.303H202.15L201.284 447.114C201.277 447.134 201.267 447.154 201.255 447.174C201.172 447.277 201.082 447.328 200.984 447.328C200.923 447.328 200.866 447.311 200.813 447.277C200.717 447.212 200.669 447.123 200.669 447.013C200.669 446.982 200.676 446.95 200.689 446.919C200.743 446.793 200.833 446.595 200.957 446.324C202.217 443.572 202.97 441.949 203.217 441.453C203.288 441.309 203.389 441.236 203.521 441.233C203.649 441.237 203.745 441.289 203.811 441.391ZM203.418 442.606L202.444 444.655H203.819L203.418 442.606Z" fill="#FAFAFA"/>
<path d="M208.02 444.509C208.226 445.081 208.385 445.522 208.498 445.833C208.77 446.586 208.907 446.983 208.907 447.025C208.907 447.082 208.89 447.135 208.856 447.185C208.793 447.281 208.705 447.33 208.592 447.33C208.474 447.327 208.388 447.257 208.33 447.118C208.31 447.062 208.293 447.017 208.28 446.985C208.136 446.656 207.9 446.036 207.573 445.123L206.078 447.166C205.995 447.274 205.902 447.329 205.798 447.332C205.742 447.332 205.687 447.317 205.635 447.289C205.535 447.228 205.486 447.141 205.486 447.025C205.486 446.999 205.487 446.977 205.49 446.958C205.498 446.911 205.55 446.826 205.647 446.703C206.148 446.056 206.701 445.285 207.307 444.39C207.243 444.215 207.183 444.048 207.125 443.891C206.563 442.384 206.282 441.605 206.282 441.555C206.282 441.497 206.295 441.444 206.321 441.394C206.379 441.29 206.463 441.237 206.576 441.237C206.713 441.24 206.811 441.298 206.871 441.412L207.753 443.79L209.515 441.391C209.59 441.294 209.684 441.244 209.796 441.242C209.848 441.242 209.896 441.254 209.94 441.277C210.042 441.334 210.093 441.428 210.093 441.558C210.093 441.602 210.082 441.651 210.062 441.703L208.02 444.509Z" fill="#FAFAFA"/>
<path d="M214.559 441.254C214.609 441.254 214.657 441.266 214.705 441.289C214.81 441.347 214.866 441.437 214.874 441.56C214.441 444.976 214.203 446.822 214.158 447.097C214.058 447.679 213.87 448.16 213.592 448.54C213.17 449.114 212.585 449.401 211.838 449.401C211.596 449.401 211.315 449.326 210.992 449.177C210.541 448.968 210.231 448.695 210.06 448.359C210.036 448.312 210.025 448.261 210.025 448.205C210.025 448.15 210.04 448.098 210.068 448.048C210.131 447.943 210.222 447.891 210.339 447.891C210.434 447.893 210.514 447.936 210.579 448.021C210.97 448.532 211.421 448.789 211.932 448.792C212.338 448.79 212.688 448.612 212.981 448.259C213.314 447.854 213.508 447.301 213.563 446.598C213.461 446.757 213.331 446.895 213.174 447.011C212.888 447.218 212.572 447.321 212.226 447.321C212.168 447.321 212.109 447.317 212.049 447.309C211.646 447.251 211.311 447.011 211.046 446.589C210.752 446.12 210.606 445.533 210.606 444.828C210.606 444.508 210.62 444.178 210.65 443.837C210.7 443.303 210.819 442.544 211.007 441.56C211.012 441.529 211.021 441.499 211.035 441.47C211.09 441.326 211.184 441.254 211.318 441.254C211.371 441.254 211.422 441.268 211.471 441.297C211.576 441.357 211.628 441.441 211.628 441.548C211.628 441.711 211.579 442.112 211.483 442.753C211.344 443.696 211.274 444.309 211.274 444.595C211.274 445.181 211.353 445.659 211.51 446.028C211.691 446.458 211.952 446.672 212.293 446.672C212.327 446.672 212.362 446.668 212.399 446.66C212.656 446.608 212.919 446.397 213.189 446.028C213.498 445.604 213.716 445.119 213.842 444.571L214.243 441.559C214.248 441.512 214.261 441.467 214.282 441.426C214.341 441.312 214.433 441.254 214.559 441.254Z" fill="#FAFAFA"/>
<path d="M253.977 452.294C253.888 452.294 253.815 448.687 253.815 444.238C253.815 439.787 253.887 436.181 253.977 436.181C254.066 436.181 254.139 439.788 254.139 444.238C254.138 448.686 254.066 452.294 253.977 452.294Z" fill="#F5F5F5"/>
<path d="M182.243 452.294C182.154 452.294 182.081 448.687 182.081 444.238C182.081 439.787 182.153 436.181 182.243 436.181C182.332 436.181 182.405 439.788 182.405 444.238C182.405 448.686 182.332 452.294 182.243 452.294Z" fill="#E0E0E0"/>
<path d="M255.515 452.294C255.426 452.294 255.353 448.687 255.353 444.238C255.353 439.787 255.425 436.181 255.515 436.181C255.604 436.181 255.677 439.788 255.677 444.238C255.676 448.686 255.604 452.294 255.515 452.294Z" fill="#F5F5F5"/>
<path d="M180.805 452.294C180.716 452.294 180.643 448.687 180.643 444.238C180.643 439.787 180.715 436.181 180.805 436.181C180.895 436.181 180.967 439.788 180.967 444.238C180.967 448.686 180.895 452.294 180.805 452.294Z" fill="#E0E0E0"/>
<path d="M232.721 438.835L232.707 438.807C235.101 440.738 238.354 443.363 241.972 446.282L242.054 446.348L241.952 446.375C241.56 446.478 241.141 446.588 240.719 446.699C237.905 447.437 235.241 448.137 232.897 448.752L232.881 448.756L232.866 448.75C229.959 447.517 227.507 446.477 225.776 445.743C224.918 445.375 224.239 445.084 223.769 444.883C223.541 444.783 223.364 444.706 223.239 444.652C223.182 444.626 223.138 444.606 223.104 444.591C223.074 444.577 223.059 444.568 223.059 444.568C223.059 444.568 223.076 444.572 223.107 444.584C223.142 444.598 223.187 444.615 223.245 444.638C223.371 444.689 223.55 444.762 223.78 444.855C224.252 445.05 224.934 445.333 225.797 445.69C227.531 446.415 229.989 447.443 232.902 448.661L232.871 448.659C235.214 448.041 237.878 447.338 240.691 446.596C241.113 446.485 241.532 446.375 241.924 446.272L241.904 446.365C238.293 443.437 235.047 440.804 232.658 438.866L232.645 438.855L232.644 438.838" fill="#E0E0E0"/>
<path d="M241.135 445.118L241.64 445.593L242.318 445.447L242.022 446.074L242.371 446.673L241.683 446.586L241.22 447.103L241.091 446.421L240.457 446.141L241.065 445.808L241.135 445.118Z" fill="#E0E0E0"/>
<path d="M232.247 448.064L232.592 448.351L233.025 448.23L232.858 448.647L233.107 449.02L232.659 448.99L232.381 449.343L232.271 448.908L231.85 448.752L232.229 448.512L232.247 448.064Z" fill="#E0E0E0"/>
<path d="M222.431 444.036L222.981 444.07L223.321 443.637L223.458 444.171L223.976 444.36L223.511 444.655L223.49 445.206L223.065 444.855L222.536 445.006L222.738 444.493L222.431 444.036Z" fill="#E0E0E0"/>
<path d="M245.289 438.952L245.839 438.987L246.179 438.553L246.316 439.087L246.833 439.276L246.368 439.572L246.348 440.122L245.923 439.771L245.393 439.922L245.596 439.41L245.289 438.952Z" fill="#E0E0E0"/>
<path d="M232.272 438.591L232.623 438.613L232.84 438.336L232.928 438.677L233.258 438.798L232.961 438.986L232.948 439.338L232.677 439.114L232.339 439.21L232.468 438.883L232.272 438.591Z" fill="#E0E0E0"/>
<path d="M246.061 439.338C246.059 439.374 243.062 439.275 239.368 439.116C235.672 438.958 232.678 438.801 232.679 438.765C232.68 438.729 235.677 438.829 239.373 438.987C243.068 439.145 246.063 439.302 246.061 439.338Z" fill="#E0E0E0"/>
<path d="M249.427 436.248H160.521C159.356 433.606 159.071 431.096 160.521 428.847H249.427C250.593 431.54 250.495 433.988 249.427 436.248Z" fill="#E0E0E0"/>
<path d="M227.097 430.962H178.93V433.655H227.097V430.962Z" fill="#EBEBEB"/>
<path d="M163.933 436.288C163.906 436.311 163.588 436.005 163.231 435.393C162.874 434.785 162.517 433.849 162.419 432.767C162.326 431.684 162.514 430.7 162.76 430.039C163.004 429.374 163.265 429.018 163.295 429.035C163.343 429.06 163.158 429.449 162.978 430.107C162.796 430.764 162.653 431.704 162.741 432.738C162.834 433.772 163.139 434.672 163.433 435.287C163.727 435.904 163.976 436.255 163.933 436.288Z" fill="#E0E0E0"/>
<path d="M165.857 436.288C165.83 436.311 165.512 436.005 165.155 435.393C164.798 434.785 164.441 433.849 164.343 432.767C164.25 431.684 164.438 430.7 164.684 430.039C164.928 429.374 165.189 429.018 165.219 429.035C165.267 429.06 165.082 429.449 164.902 430.107C164.719 430.764 164.577 431.704 164.665 432.738C164.759 433.772 165.063 434.672 165.357 435.287C165.65 435.904 165.9 436.255 165.857 436.288Z" fill="#E0E0E0"/>
<path d="M245.83 436.115C245.732 436.08 246.458 434.539 246.456 432.497C246.482 430.454 245.774 428.905 245.872 428.872C245.93 428.82 246.803 430.37 246.779 432.499C246.779 434.628 245.888 436.168 245.83 436.115Z" fill="#F5F5F5"/>
<path d="M244.176 436.097C244.079 436.074 244.453 434.512 244.443 432.553C244.448 430.593 244.07 429.033 244.167 429.01C244.241 428.981 244.771 430.542 244.767 432.553C244.775 434.564 244.25 436.126 244.176 436.097Z" fill="#F5F5F5"/>
<path d="M300.247 401.756L175.324 401.682C160.299 401.674 148.125 389.49 148.128 374.465L148.189 61.28C148.192 46.247 160.384 34.064 175.417 34.073L300.34 34.146C315.365 34.155 327.538 46.339 327.536 61.363L327.475 374.548C327.472 389.583 315.28 401.766 300.247 401.756Z" fill="#263238"/>
<path d="M299.929 45.318L275.709 45.304C272.461 45.303 269.827 48.054 269.827 51.449L269.825 55.842C269.825 59.238 267.191 61.989 263.943 61.987L216.732 61.959C213.484 61.957 210.851 59.203 210.852 55.807L210.853 51.414C210.853 48.018 208.22 45.264 204.972 45.262L196.454 45.257L175.255 45.245C164.727 45.239 156.188 53.771 156.186 64.299L156.126 369.99C156.124 380.514 164.65 389.046 175.173 389.053L299.847 389.126C310.374 389.132 318.913 380.601 318.916 370.072L318.976 64.38C318.977 53.856 310.451 45.324 299.929 45.318Z" fill="white"/>
<path d="M320.374 93.888C320.374 94.032 283.563 94.148 238.165 94.148C192.751 94.148 155.948 94.031 155.948 93.888C155.948 93.744 192.751 93.628 238.165 93.628C283.563 93.628 320.374 93.744 320.374 93.888Z" fill="#263238"/>
<path d="M173.145 82.563C173.028 82.563 172.91 82.522 172.815 82.439L168.065 78.273C167.955 78.176 167.893 78.037 167.895 77.89C167.897 77.744 167.963 77.606 168.075 77.512L172.825 73.563C173.038 73.386 173.353 73.416 173.529 73.627C173.706 73.839 173.677 74.155 173.465 74.331L169.165 77.906L173.475 81.686C173.683 81.868 173.704 82.184 173.521 82.392C173.422 82.505 173.284 82.563 173.145 82.563Z" fill="#263238"/>
<path d="M276.801 77.621C276.801 77.765 261.327 77.881 242.244 77.881C223.154 77.881 207.684 77.764 207.684 77.621C207.684 77.478 223.154 77.361 242.244 77.361C261.327 77.361 276.801 77.477 276.801 77.621Z" fill="#263238"/>
<path d="M296.818 77.588C296.818 78.579 296.015 79.383 295.023 79.383C294.032 79.383 293.228 78.58 293.228 77.588C293.228 76.597 294.031 75.793 295.023 75.793C296.015 75.793 296.818 76.597 296.818 77.588Z" fill="#263238"/>
<path d="M302.003 77.588C302.003 78.579 301.2 79.383 300.208 79.383C299.217 79.383 298.413 78.58 298.413 77.588C298.413 76.597 299.216 75.793 300.208 75.793C301.199 75.793 302.003 76.597 302.003 77.588Z" fill="#263238"/>
<path d="M307.187 77.588C307.187 78.579 306.384 79.383 305.392 79.383C304.401 79.383 303.597 78.58 303.597 77.588C303.597 76.597 304.4 75.793 305.392 75.793C306.384 75.793 307.187 76.597 307.187 77.588Z" fill="#263238"/>
<path d="M222.573 161.051C222.573 162.21 222.091 162.906 221.287 162.906C220.858 162.906 220.55 162.705 220.436 162.323C220.175 162.705 219.766 162.906 219.23 162.906C218.305 162.906 217.622 162.203 217.622 161.198C217.622 160.207 218.305 159.503 219.23 159.503C219.699 159.503 220.087 159.664 220.349 159.979V159.543H221.092V161.821C221.092 162.163 221.253 162.277 221.441 162.277C221.803 162.277 222.004 161.855 222.004 161.065C222.004 159.631 220.959 158.667 219.432 158.667C217.878 158.667 216.847 159.706 216.847 161.166C216.847 162.646 217.865 163.678 219.406 163.678C219.815 163.678 220.297 163.591 220.706 163.383L220.887 163.919C220.478 164.127 219.903 164.234 219.407 164.234C217.505 164.234 216.232 162.941 216.232 161.166C216.232 159.411 217.518 158.118 219.434 158.118C221.28 158.117 222.573 159.343 222.573 161.051ZM220.362 161.198C220.362 160.535 219.933 160.153 219.371 160.153C218.788 160.153 218.379 160.555 218.379 161.198C218.379 161.848 218.788 162.257 219.371 162.257C219.934 162.257 220.362 161.868 220.362 161.198Z" fill="#263238"/>
<path d="M260.358 162.865C260.358 163.009 253.124 163.125 244.203 163.125C235.279 163.125 228.047 163.008 228.047 162.865C228.047 162.721 235.279 162.605 244.203 162.605C253.124 162.605 260.358 162.722 260.358 162.865Z" fill="#263238"/>
<path d="M196.47 208.574C196.47 208.718 195.467 208.834 194.231 208.834C192.994 208.834 191.992 208.717 191.992 208.574C191.992 208.43 192.994 208.314 194.231 208.314C195.468 208.313 196.47 208.43 196.47 208.574Z" fill="#263238"/>
<path d="M207.017 219.409C207.017 219.553 201.616 219.669 194.954 219.669C188.29 219.669 182.89 219.552 182.89 219.409C182.89 219.266 188.29 219.149 194.954 219.149C201.615 219.148 207.017 219.265 207.017 219.409Z" fill="#263238"/>
<path d="M245.012 208.574C245.012 208.718 241.939 208.834 238.15 208.834C234.359 208.834 231.287 208.717 231.287 208.574C231.287 208.43 234.359 208.314 238.15 208.314C241.939 208.313 245.012 208.43 245.012 208.574Z" fill="#263238"/>
<path d="M249.057 218.831C249.057 218.975 243.526 219.091 236.705 219.091C229.882 219.091 224.352 218.974 224.352 218.831C224.352 218.687 229.881 218.571 236.705 218.571C243.526 218.571 249.057 218.687 249.057 218.831Z" fill="#263238"/>
<path d="M289.797 208.718C289.797 208.862 285.657 208.978 280.551 208.978C275.444 208.978 271.305 208.861 271.305 208.718C271.305 208.574 275.444 208.458 280.551 208.458C285.657 208.458 289.797 208.574 289.797 208.718Z" fill="#263238"/>
<path d="M293.264 219.264C293.264 219.408 287.927 219.524 281.346 219.524C274.762 219.524 269.427 219.407 269.427 219.264C269.427 219.121 274.763 219.004 281.346 219.004C287.928 219.004 293.264 219.121 293.264 219.264Z" fill="#263238"/>
<path d="M258.711 250.47H190.926C189.52 250.47 188.38 249.33 188.38 247.924V232.069C188.38 230.663 189.52 229.523 190.926 229.523H258.711C260.117 229.523 261.257 230.663 261.257 232.069V247.924C261.258 249.33 260.118 250.47 258.711 250.47Z" fill="#FFC339"/>
<path d="M247.478 240.346C247.478 240.49 238.096 240.606 226.526 240.606C214.952 240.606 205.572 240.489 205.572 240.346C205.572 240.202 214.952 240.086 226.526 240.086C238.096 240.085 247.478 240.202 247.478 240.346Z" fill="white"/>
<path d="M285.743 250.602H269.655C268.348 250.602 267.288 249.542 267.288 248.235V231.501C267.288 230.194 268.348 229.134 269.655 229.134H285.743C287.05 229.134 288.11 230.194 288.11 231.501V248.235C288.11 249.542 287.05 250.602 285.743 250.602Z" fill="#EBEBEB"/>
<path d="M275.455 238.769H279.943L277.889 241.923L275.455 238.769Z" fill="#263238"/>
<path d="M261.258 266.052C261.258 266.196 249.671 266.312 235.381 266.312C221.086 266.312 209.502 266.195 209.502 266.052C209.502 265.908 221.086 265.792 235.381 265.792C249.671 265.792 261.258 265.908 261.258 266.052Z" fill="#E0E0E0"/>
<path d="M276.324 275.801C276.324 275.945 259.301 276.061 238.307 276.061C217.305 276.061 200.286 275.944 200.286 275.801C200.286 275.658 217.306 275.541 238.307 275.541C259.301 275.54 276.324 275.657 276.324 275.801Z" fill="#E0E0E0"/>
<path d="M320.024 292.705C320.024 292.849 283.566 292.965 238.604 292.965C193.626 292.965 157.176 292.848 157.176 292.705C157.176 292.562 193.626 292.445 238.604 292.445C283.567 292.445 320.024 292.561 320.024 292.705Z" fill="#263238"/>
<path d="M240.204 311.67C240.06 311.67 239.943 307.543 239.943 302.454C239.943 297.363 240.06 293.237 240.204 293.237C240.348 293.237 240.464 297.363 240.464 302.454C240.465 307.543 240.348 311.67 240.204 311.67Z" fill="#263238"/>
<path d="M203.613 189.956C208.26 189.956 212.027 186.189 212.027 181.542C212.027 176.895 208.26 173.128 203.613 173.128C198.966 173.128 195.199 176.895 195.199 181.542C195.199 186.189 198.966 189.956 203.613 189.956Z" fill="#FFC339"/>
<path d="M199.814 181.696L200.894 180.616L202.978 182.468L207.067 178.533L208.07 179.613L202.823 184.551L199.814 181.696Z" fill="white"/>
<path d="M239.761 389.091L173.772 389.064C163.927 389.064 155.947 381.083 155.947 371.238V311.67H239.762L239.761 389.091Z" fill="#EBEBEB"/>
<path d="M300.628 389.25L238.963 389.089V311.67H319.141V370.736C319.142 380.66 310.553 389.25 300.628 389.25Z" fill="#279D69"/>
<path d="M320.024 311.67C320.024 311.814 283.569 311.93 238.609 311.93C193.634 311.93 157.186 311.813 157.186 311.67C157.186 311.527 193.634 311.41 238.609 311.41C283.569 311.41 320.024 311.526 320.024 311.67Z" fill="#263238"/>
<path d="M240.226 154.49C253.017 154.49 263.387 144.12 263.387 131.329C263.387 118.538 253.017 108.168 240.226 108.168C227.435 108.168 217.065 118.538 217.065 131.329C217.065 144.12 227.435 154.49 240.226 154.49Z" fill="#F5F5F5"/>
<path d="M255.204 148.901C254.518 141.784 248.459 135.749 240.233 135.749C232.008 135.749 226.382 141.972 225.26 148.951C225.26 148.951 230.343 154.572 240.233 154.49C250.124 154.408 255.204 148.901 255.204 148.901Z" fill="#E0E0E0"/>
<path d="M249.197 129.693C249.997 124.742 246.633 120.079 241.682 119.278C236.731 118.477 232.068 121.842 231.267 126.793C230.466 131.744 233.83 136.407 238.782 137.208C243.733 138.009 248.396 134.644 249.197 129.693Z" fill="#E0E0E0"/>
<path d="M255.095 148.107C254.984 148.138 254.965 146.425 253.678 143.828C252.994 142.562 251.944 141.123 250.404 139.803C248.869 138.497 246.857 137.273 244.486 136.485L244.016 136.329L244.447 136.098C245.885 135.328 247.198 134.087 248.066 132.486C248.938 130.894 249.326 128.928 249.025 126.975C248.76 125.02 247.754 123.099 246.186 121.701C244.63 120.293 242.504 119.438 240.299 119.437C238.1 119.437 235.977 120.285 234.42 121.687C232.849 123.077 231.843 124.993 231.57 126.942C231.253 128.893 231.649 130.851 232.5 132.45C232.934 133.247 233.472 133.963 234.083 134.573C234.695 135.188 235.391 135.653 236.099 136.107L236.498 136.363L236.039 136.486C233.601 137.14 231.588 138.368 230.12 139.757C228.641 141.148 227.675 142.656 227.021 143.944C226.368 145.239 226.015 146.325 225.8 147.066C225.689 147.436 225.624 147.725 225.575 147.918C225.528 148.112 225.503 148.212 225.493 148.21C225.482 148.209 225.486 148.105 225.513 147.906C225.542 147.708 225.587 147.412 225.68 147.034C225.858 146.277 226.178 145.168 226.808 143.838C227.439 142.516 228.393 140.959 229.888 139.511C231.371 138.064 233.431 136.774 235.93 136.08L235.871 136.459C235.169 136.02 234.419 135.528 233.774 134.888C233.127 134.253 232.555 133.505 232.094 132.668C231.186 130.991 230.757 128.927 231.083 126.867C231.364 124.806 232.42 122.775 234.079 121.302C235.722 119.816 237.973 118.914 240.301 118.915C242.634 118.915 244.889 119.825 246.531 121.318C248.187 122.8 249.244 124.836 249.516 126.903C249.825 128.965 249.403 131.037 248.474 132.707C247.549 134.386 246.16 135.676 244.646 136.468L244.607 136.081C247.062 136.923 249.071 138.187 250.628 139.547C252.182 140.918 253.228 142.411 253.893 143.718C254.182 144.394 254.478 144.98 254.606 145.536C254.767 146.08 254.914 146.538 254.949 146.929C255 147.283 255.042 147.571 255.075 147.805C255.098 148.004 255.105 148.106 255.095 148.107Z" fill="#263238"/>
<path d="M263.387 131.329C263.378 131.329 263.363 131.202 263.341 130.954C263.321 130.681 263.294 130.317 263.26 129.855C263.244 129.611 263.226 129.341 263.207 129.046C263.174 128.75 263.109 128.429 263.055 128.08C262.941 127.382 262.834 126.573 262.564 125.694C262.15 123.909 261.308 121.8 259.986 119.566C258.653 117.342 256.732 115.019 254.12 113.05C251.517 111.099 248.233 109.44 244.445 108.772C240.682 108.127 236.436 108.246 232.392 109.784C231.363 110.114 230.396 110.623 229.401 111.101C228.459 111.671 227.467 112.196 226.59 112.909C225.658 113.549 224.843 114.35 223.99 115.121C223.219 115.975 222.409 116.81 221.744 117.779C220.38 119.674 219.189 121.78 218.468 124.095C217.721 126.396 217.319 128.84 217.285 131.327C217.318 133.815 217.719 136.26 218.466 138.561C219.186 140.877 220.378 142.983 221.742 144.879C222.407 145.848 223.217 146.684 223.988 147.538C224.842 148.309 225.656 149.11 226.589 149.751C227.466 150.464 228.458 150.99 229.4 151.56C230.395 152.037 231.362 152.547 232.391 152.877C236.435 154.415 240.682 154.533 244.445 153.888C248.234 153.219 251.517 151.56 254.12 149.609C256.732 147.639 258.652 145.317 259.985 143.092C261.307 140.858 262.149 138.75 262.563 136.965C262.833 136.086 262.941 135.277 263.054 134.579C263.108 134.23 263.173 133.909 263.206 133.613C263.226 133.318 263.243 133.048 263.259 132.804C263.293 132.342 263.32 131.978 263.34 131.705C263.363 131.457 263.378 131.329 263.387 131.329C263.396 131.329 263.398 131.456 263.395 131.705C263.388 131.98 263.378 132.345 263.365 132.81C263.356 133.056 263.347 133.327 263.336 133.625C263.311 133.924 263.254 134.247 263.208 134.6C263.11 135.305 263.017 136.123 262.76 137.013C262.373 138.821 261.551 140.964 260.236 143.24C258.91 145.506 256.983 147.88 254.344 149.9C251.714 151.902 248.382 153.61 244.525 154.311C240.695 154.987 236.363 154.883 232.228 153.326C231.176 152.991 230.186 152.475 229.17 151.989C228.206 151.41 227.191 150.875 226.294 150.149C225.341 149.496 224.505 148.681 223.633 147.893C222.843 147.023 222.014 146.169 221.333 145.179C219.935 143.243 218.716 141.09 217.977 138.722C217.211 136.368 216.8 133.867 216.767 131.324C216.8 128.781 217.213 126.281 217.979 123.929C218.719 121.562 219.938 119.409 221.335 117.474C222.016 116.485 222.845 115.632 223.635 114.761C224.508 113.974 225.343 113.158 226.296 112.506C227.194 111.78 228.208 111.245 229.172 110.666C230.189 110.18 231.178 109.664 232.23 109.33C236.365 107.774 240.696 107.669 244.526 108.345C248.383 109.045 251.715 110.754 254.345 112.755C256.984 114.775 258.911 117.149 260.237 119.415C261.553 121.691 262.375 123.834 262.762 125.643C263.019 126.534 263.112 127.352 263.21 128.057C263.256 128.41 263.313 128.733 263.338 129.032C263.348 129.329 263.358 129.601 263.367 129.847C263.38 130.311 263.39 130.677 263.397 130.952C263.398 131.202 263.396 131.329 263.387 131.329Z" fill="#263238"/>
<path d="M144.44 236.53C132.278 242.83 122.951 253.677 116.245 265.621C109.539 277.564 105.217 290.67 100.936 303.681L97.19 370.784C111.342 346.708 122.701 318.406 125.77 290.648C122.631 290.368 119.492 290.089 116.352 289.809C122.666 288.845 127.966 284.27 131.339 278.845C134.711 273.42 136.447 267.164 138.141 261.006C134.311 261.575 130.481 262.145 126.651 262.714C135.649 256.709 142.172 247.107 144.44 236.53Z" fill="#279D69"/>
<path d="M144.44 236.53C132.278 242.83 122.951 253.677 116.245 265.621C109.539 277.564 105.217 290.67 100.936 303.681L97.19 370.784C111.342 346.708 122.701 318.406 125.77 290.648C122.631 290.368 119.492 290.089 116.352 289.809C122.666 288.845 127.966 284.27 131.339 278.845C134.711 273.42 136.447 267.164 138.141 261.006C134.311 261.575 130.481 262.145 126.651 262.714C135.649 256.709 142.172 247.107 144.44 236.53Z" fill="#279D69"/>
<path d="M95.095 386.506C95.095 386.506 64.378 349.74 64.733 314.643H77.141C77.141 314.643 63.663 305.78 64.73 300.817C65.796 295.854 66.151 277.064 66.151 277.064L77.496 279.9C77.496 279.9 68.988 275.646 67.924 268.91C66.861 262.174 70.406 230.976 70.406 230.976C70.406 230.976 84.232 245.511 88.487 260.401C92.741 275.291 103.908 292.663 100.629 338.041C97.349 383.42 95.095 386.506 95.095 386.506Z" fill="#279D69"/>
<path d="M110.667 389.977C110.667 389.977 143.946 367.808 151.34 339.512L141.364 336.797C141.364 336.797 154.139 332.62 154.367 328.396C154.595 324.172 158.421 308.988 158.421 308.988L148.68 308.786C148.68 308.786 156.451 307.227 158.78 302.044C161.109 296.861 165.084 271.003 165.084 271.003C165.084 271.003 150.788 279.664 144.11 290.704C137.432 301.744 124.653 313.267 117.361 350.468C110.069 387.669 110.667 389.977 110.667 389.977Z" fill="#279D69"/>
<path d="M78.796 263.031C78.805 263.029 78.841 263.158 78.904 263.413C78.97 263.693 79.057 264.067 79.169 264.545C79.397 265.571 79.722 267.036 80.139 268.909C80.563 270.803 81.057 273.126 81.593 275.831C82.138 278.534 82.774 281.609 83.396 285.024C84.709 291.841 86.095 299.991 87.523 309.058C88.907 318.132 90.289 328.129 91.518 338.65C92.722 349.178 93.658 359.229 94.381 368.381C95.06 377.536 95.57 385.788 95.847 392.725C96.021 396.192 96.103 399.331 96.189 402.087C96.285 404.843 96.334 407.217 96.353 409.158C96.375 411.076 96.392 412.577 96.405 413.627C96.405 414.118 96.405 414.502 96.405 414.789C96.402 415.051 96.396 415.185 96.387 415.185C96.378 415.185 96.366 415.051 96.351 414.79C96.338 414.503 96.321 414.119 96.299 413.629C96.264 412.579 96.214 411.08 96.15 409.163C96.1 407.223 96.021 404.851 95.898 402.097C95.784 399.343 95.676 396.207 95.479 392.743C95.155 385.812 94.607 377.567 93.903 368.42C93.154 359.276 92.205 349.232 91.001 338.712C89.773 328.198 88.406 318.205 87.049 309.133C85.648 300.068 84.301 291.916 83.035 285.094C82.437 281.676 81.826 278.598 81.309 275.891C80.801 273.182 80.336 270.853 79.943 268.953C79.568 267.072 79.275 265.6 79.069 264.57C78.979 264.088 78.908 263.709 78.855 263.427C78.806 263.166 78.787 263.033 78.796 263.031Z" fill="#263238"/>
<path d="M90.834 409.02C90.834 409.02 62.724 377.125 53.996 357.845L60.585 355.03C55.809 355.818 50.916 353.765 47.212 350.648C43.509 347.531 40.789 343.431 38.122 339.391L46.802 337.924C38.909 335.709 31.955 330.322 27.837 323.233C38.08 324.917 47.346 330.544 54.982 337.575C61.166 343.27 66.402 349.88 71.431 356.634C73.884 359.929 76.031 363.439 77.819 367.137C82.544 376.904 90.85 397.307 90.834 409.02Z" fill="#279D69"/>
<path d="M151.782 289.569C151.79 289.573 151.745 289.683 151.65 289.893C151.541 290.126 151.397 290.432 151.216 290.819C150.81 291.657 150.234 292.842 149.5 294.355C148.745 295.886 147.827 297.761 146.791 299.952C145.751 302.141 144.537 304.621 143.267 307.395C140.673 312.918 137.689 319.543 134.484 326.945C131.305 334.359 127.92 342.557 124.553 351.235C121.205 359.924 118.194 368.269 115.558 375.894C112.95 383.529 110.7 390.438 108.904 396.269C107.978 399.176 107.208 401.827 106.505 404.146C105.797 406.464 105.215 408.469 104.744 410.109C104.269 411.722 103.897 412.986 103.634 413.879C103.508 414.287 103.409 414.61 103.333 414.856C103.262 415.075 103.222 415.187 103.213 415.184C103.204 415.182 103.228 415.066 103.281 414.842C103.344 414.593 103.427 414.265 103.532 413.851C103.773 412.952 104.113 411.678 104.548 410.054C104.989 408.405 105.543 406.391 106.225 404.064C106.902 401.736 107.648 399.076 108.551 396.161C110.303 390.313 112.518 383.387 115.103 375.738C117.716 368.099 120.716 359.743 124.067 351.047C127.437 342.362 130.838 334.163 134.043 326.754C137.275 319.357 140.295 312.743 142.934 307.237C144.227 304.472 145.464 302.002 146.53 299.824C147.591 297.643 148.536 295.781 149.319 294.264C150.091 292.769 150.695 291.598 151.122 290.771C151.323 290.394 151.482 290.096 151.603 289.869C151.714 289.667 151.774 289.565 151.782 289.569Z" fill="#263238"/>
<path d="M93.219 422.688C93.201 422.69 93.157 422.488 93.09 422.101C93.019 421.658 92.93 421.097 92.82 420.407C92.714 419.67 92.578 418.77 92.385 417.731C92.197 416.691 92.016 415.501 91.734 414.201C91.232 411.59 90.511 408.505 89.591 405.114C88.642 401.731 87.477 398.045 86.055 394.247C84.611 390.456 83.05 386.919 81.526 383.752C79.974 380.599 78.476 377.807 77.128 375.515C76.481 374.353 75.83 373.341 75.284 372.436C74.742 371.528 74.249 370.763 73.842 370.14C73.469 369.55 73.165 369.07 72.925 368.691C72.72 368.356 72.619 368.176 72.634 368.165C72.649 368.155 72.778 368.316 73.011 368.631C73.272 368.996 73.603 369.458 74.01 370.027C74.444 370.634 74.963 371.384 75.529 372.279C76.1 373.171 76.774 374.173 77.444 375.326C78.837 377.601 80.374 380.384 81.956 383.539C83.51 386.707 85.092 390.254 86.542 394.062C87.97 397.877 89.126 401.583 90.054 404.987C90.951 408.399 91.638 411.504 92.095 414.132C92.355 415.44 92.511 416.638 92.672 417.685C92.839 418.731 92.945 419.637 93.021 420.379C93.091 421.075 93.149 421.64 93.194 422.087C93.228 422.479 93.237 422.685 93.219 422.688Z" fill="#263238"/>
<path d="M130.311 415.185H68.788V427.735H130.311V415.185Z" fill="#FFC339"/>
<path d="M74.65 427.735L81.305 469.947H118.481L124.683 427.735H74.65Z" fill="#FFC339"/>
<path d="M126.536 427.735C126.536 427.879 114.898 427.995 100.545 427.995C86.187 427.995 74.551 427.879 74.551 427.735C74.551 427.591 86.187 427.475 100.545 427.475C114.898 427.475 126.536 427.591 126.536 427.735Z" fill="#263238"/>
<g opacity="0.3">
<path d="M144.44 236.53C132.278 242.83 122.951 253.677 116.245 265.621C109.539 277.564 105.217 290.67 100.936 303.681L97.19 370.784C111.342 346.708 122.701 318.406 125.77 290.648C122.631 290.368 119.492 290.089 116.352 289.809C122.666 288.845 127.966 284.27 131.339 278.845C134.711 273.42 136.447 267.164 138.141 261.006C134.311 261.575 130.481 262.145 126.651 262.714C135.649 256.709 142.172 247.107 144.44 236.53Z" fill="black"/>
</g>
<path d="M430.87 290.686C430.87 290.686 441.075 307.622 442.588 323.745C444.101 339.868 433.34 470.116 433.34 470.116H306.438C306.438 470.116 340.432 309.275 351.56 298.953L352.322 288.252L430.87 290.686Z" fill="#263238"/>
<path d="M436.288 303.599C436.288 303.599 436.343 304.382 436.242 305.869C436.146 307.352 435.874 309.555 435.027 312.264C434.199 314.969 432.736 318.179 430.291 321.395C429.061 322.993 427.574 324.577 425.795 326.02C424.017 327.464 421.974 328.766 419.787 330.036C417.6 331.309 415.262 332.55 412.923 333.994C410.604 335.452 408.238 337.106 406.287 339.314C404.372 341.543 402.805 344.195 401.767 347.165C400.744 350.14 400.154 353.342 399.704 356.64C399.253 359.942 398.965 363.353 398.51 366.828C398.042 370.296 397.401 373.854 396.107 377.289C394.839 380.724 392.765 383.962 389.963 386.521C387.177 389.104 383.804 391.032 380.297 392.646C373.265 395.862 365.942 397.912 359.733 401.667C356.635 403.528 353.948 405.916 351.879 408.691C349.825 411.488 348.468 414.653 347.43 417.802C345.389 424.139 344.533 430.472 342.866 436.197C342.648 436.91 342.432 437.616 342.218 438.317C341.974 439.008 341.732 439.693 341.493 440.372C340.926 441.697 340.418 443.019 339.75 444.235C339.158 445.49 338.41 446.627 337.736 447.771C337.358 448.317 336.984 448.857 336.614 449.391L336.059 450.184L335.46 450.93C332.316 454.917 328.812 457.967 325.45 460.177C322.09 462.398 318.924 463.874 316.254 464.815C313.578 465.744 311.428 466.233 309.962 466.489C309.24 466.597 308.684 466.681 308.287 466.74C307.909 466.794 307.714 466.808 307.714 466.808C307.714 466.808 307.904 466.758 308.279 466.687C308.673 466.615 309.225 466.516 309.942 466.386C311.398 466.098 313.531 465.578 316.184 464.625C318.83 463.66 321.964 462.165 325.287 459.936C328.611 457.718 332.071 454.671 335.17 450.704L335.761 449.962L336.308 449.173C336.672 448.642 337.04 448.106 337.412 447.564C338.075 446.428 338.811 445.299 339.392 444.054C340.05 442.848 340.547 441.537 341.104 440.225C341.339 439.551 341.576 438.872 341.815 438.186C342.025 437.49 342.238 436.788 342.452 436.08C344.093 430.387 344.929 424.056 346.975 417.654C348.017 414.473 349.387 411.256 351.479 408.399C353.586 405.562 356.332 403.121 359.469 401.233C365.759 397.425 373.103 395.37 380.081 392.175C383.561 390.574 386.884 388.671 389.613 386.143C392.358 383.636 394.38 380.487 395.632 377.111C396.908 373.737 397.549 370.215 398.019 366.765C398.477 363.307 398.771 359.894 399.23 356.578C399.689 353.265 400.29 350.033 401.336 347.016C402.397 344.002 404.004 341.295 405.967 339.027C407.968 336.779 410.372 335.113 412.713 333.653C415.073 332.209 417.419 330.976 419.604 329.718C421.789 328.463 423.822 327.181 425.588 325.764C427.354 324.349 428.835 322.791 430.063 321.218C432.505 318.052 433.984 314.881 434.836 312.204C435.707 309.523 436.009 307.338 436.139 305.862C436.225 305.124 436.224 304.556 436.248 304.176C436.265 303.794 436.288 303.599 436.288 303.599Z" fill="#279D69"/>
<path d="M439.852 315.441C439.852 315.441 439.925 315.608 440.044 315.945C440.178 316.277 440.312 316.792 440.473 317.471C440.737 318.83 440.935 320.937 440.363 323.539C439.808 326.128 438.533 329.207 436.21 332.188C433.917 335.193 430.674 338.044 427.012 341.014C423.385 344.004 419.25 347.223 416.077 351.757C414.503 354.016 413.298 356.639 412.705 359.515C412.08 362.384 411.928 365.425 411.734 368.538C411.559 371.651 411.237 374.877 410.398 378.06C409.582 381.244 408.36 384.395 406.748 387.407C403.531 393.426 398.734 398.912 392.67 402.902C386.561 406.89 379.669 408.815 373.625 411.832C370.606 413.335 367.749 415.094 365.438 417.363C363.131 419.632 361.369 422.319 360.083 425.135C357.511 430.797 356.455 436.69 355.017 442.048C354.309 444.736 353.529 447.314 352.585 449.725C351.607 452.122 350.453 454.342 349.088 456.288C347.737 458.244 346.172 459.902 344.571 461.314C343.791 462.047 342.939 462.646 342.148 463.267C341.304 463.814 340.519 464.397 339.686 464.84C336.426 466.736 333.314 467.789 330.726 468.335C328.132 468.9 326.062 468.933 324.674 468.969C323.995 468.936 323.469 468.91 323.092 468.892C322.736 468.871 322.555 468.847 322.555 468.847C322.555 468.847 322.739 468.835 323.095 468.839C323.471 468.845 323.996 468.853 324.673 468.864C326.056 468.794 328.112 468.728 330.682 468.137C333.246 467.565 336.323 466.491 339.538 464.589C340.36 464.144 341.133 463.561 341.965 463.014C342.744 462.394 343.583 461.796 344.35 461.066C345.925 459.66 347.462 458.014 348.786 456.076C350.122 454.15 351.252 451.953 352.211 449.576C353.136 447.183 353.903 444.62 354.599 441.938C356.016 436.594 357.053 430.681 359.647 424.934C360.944 422.076 362.737 419.327 365.091 417.006C367.449 414.684 370.352 412.894 373.398 411.374C379.497 408.326 386.368 406.399 392.385 402.465C398.37 398.528 403.113 393.11 406.298 387.165C407.894 384.191 409.105 381.079 409.916 377.935C410.75 374.79 411.073 371.618 411.255 368.506C411.456 365.398 411.615 362.333 412.258 359.415C412.868 356.49 414.115 353.797 415.722 351.51C418.964 346.913 423.141 343.698 426.78 340.727C430.455 337.776 433.689 334.965 435.981 332.007C438.299 329.077 439.587 326.046 440.166 323.493C440.762 320.927 440.6 318.844 440.371 317.488C440.105 316.131 439.812 315.454 439.852 315.441Z" fill="#279D69"/>
<path d="M311.049 224.859C311.049 224.859 319.282 281.616 331.936 287.134C338.319 289.917 343.445 287.523 346.945 281.092C350.445 274.661 359.345 228.268 359.345 228.268L334.715 227.693L333.794 236.923L324.303 219.25L311.049 224.859Z" fill="#CFA39C"/>
<path d="M347.361 261.92C347.375 261.912 347.303 261.757 347.152 261.471C346.972 261.141 346.748 260.731 346.475 260.23C345.849 259.097 344.998 257.557 343.961 255.682C341.841 251.84 338.929 246.523 335.75 240.631C332.61 234.75 329.77 229.429 327.674 225.503C326.672 223.609 325.849 222.054 325.244 220.909C324.971 220.408 324.748 219.998 324.568 219.667C324.409 219.385 324.318 219.241 324.304 219.248C324.289 219.255 324.352 219.414 324.483 219.709C324.642 220.05 324.839 220.474 325.08 220.991C325.605 222.101 326.392 223.694 327.378 225.655C329.353 229.576 332.152 234.958 335.335 240.854C338.515 246.749 341.474 252.043 343.67 255.845C344.767 257.747 345.676 259.273 346.316 260.322C346.62 260.805 346.869 261.2 347.07 261.519C347.248 261.79 347.347 261.929 347.361 261.92Z" fill="#97746F"/>
<path d="M433.193 238.134L426.163 269.581L429.489 290.686H352.226L357.278 192.16L376.541 190.521L423.603 198.465L433.193 238.134Z" fill="#FFC339"/>
<path d="M413.538 197.898C413.538 197.898 433.664 196.053 443.25 209.744C449.116 218.123 457.352 237.367 457.352 237.367L430.563 241.986L413.538 197.898Z" fill="#FFC339"/>
<g opacity="0.3">
<path d="M425.735 238.503C423.116 232.916 417.008 229.158 410.84 229.341C409.498 229.381 407.992 229.695 407.276 230.831C406.524 232.022 406.963 233.58 407.478 234.892C408.15 236.605 409.036 238.406 410.683 239.228C411.883 239.827 413.294 239.8 414.576 240.191C416.152 240.672 417.461 241.756 418.723 242.815C419.744 243.671 420.786 244.551 421.454 245.704C421.986 246.621 422.253 247.664 422.514 248.692C423.82 253.834 424.857 264.439 426.164 269.582L427.603 265.15C427.638 260.922 427.673 256.695 427.708 252.468C427.747 247.724 427.748 242.797 425.735 238.503Z" fill="black"/>
</g>
<path d="M401.715 264.719C401.73 264.643 402.77 264.823 404.459 264.954C406.147 265.087 408.494 265.117 411.054 264.787C413.614 264.45 415.875 263.818 417.473 263.257C419.072 262.698 420.031 262.256 420.065 262.326C420.079 262.355 419.854 262.494 419.432 262.721C419.013 262.953 418.384 263.246 417.59 263.569C416.005 264.217 413.718 264.912 411.116 265.255C408.513 265.591 406.125 265.507 404.427 265.286C403.577 265.178 402.894 265.056 402.429 264.939C401.962 264.828 401.709 264.751 401.715 264.719Z" fill="#263238"/>
<path d="M368.008 266.101C368.045 265.976 378.978 269.091 392.424 273.058C405.875 277.026 416.746 280.343 416.709 280.468C416.672 280.593 405.742 277.478 392.29 273.51C378.845 269.544 367.971 266.226 368.008 266.101Z" fill="#263238"/>
<g opacity="0.3">
<path d="M402.275 264.849C404.198 267.787 407.857 269.488 411.343 269.064C414.829 268.64 417.534 266.405 418.695 263.091C413.408 265.236 407.937 265.554 402.275 264.849Z" fill="black"/>
</g>
<g opacity="0.3">
<path d="M413.769 279.508L413.486 279.617C406.589 280.851 400.125 279.576 393.511 277.264C386.897 274.952 380.739 271.524 374.631 268.091C387.677 271.897 400.723 275.703 413.769 279.508Z" fill="black"/>
</g>
<path d="M357.278 192.16C357.278 192.16 344.545 193.721 339.599 204.6C334.654 215.479 331.042 228.48 331.042 228.48L357.014 234.327C357.014 234.327 361.1 212.354 361.412 204.6C361.753 196.106 362.085 191.915 357.278 192.16Z" fill="#FFC339"/>
<path d="M354.828 237.806C354.698 237.806 354.599 234.544 354.608 230.521C354.617 226.497 354.729 223.236 354.86 223.236C354.99 223.236 355.089 226.498 355.08 230.522C355.071 234.545 354.958 237.806 354.828 237.806Z" fill="#263238"/>
<path d="M368.935 122.453C375.812 114.047 385.048 109.208 395.906 109.029C402.032 108.928 404.568 110.201 408.98 111.391C413.392 112.581 417.373 114.948 420.004 118.684C423.13 123.121 425.756 128.09 426.347 133.485C426.954 139.027 427.562 144.607 427.144 150.167C426.726 155.727 425.216 161.326 421.942 165.838L407.796 168.296C399.983 168.562 392.063 168.818 384.451 167.036C376.839 165.254 369.445 161.159 365.368 154.488C359.706 145.221 362.058 130.858 368.935 122.453Z" fill="#263238"/>
<path d="M355.224 163.52C355.575 160.328 357.248 157.192 360.013 155.559C362.778 153.926 366.64 154.095 368.943 156.333L371.165 158.982C374.649 160.466 376.839 164.427 376.418 168.19C375.997 171.953 373.102 175.271 369.48 176.376C365.858 177.481 361.704 176.411 358.935 173.828C356.165 171.246 354.81 167.285 355.224 163.52Z" fill="#263238"/>
<path d="M358.028 173.06C358.132 173.012 357.15 172.107 357.267 170.245C357.386 168.435 358.701 166.061 360.505 163.886C362.345 161.7 364.513 160.205 366.173 159.341C367.83 158.451 368.97 158.126 368.934 158.01C368.92 157.941 367.72 158.1 365.956 158.9C364.194 159.673 361.889 161.162 359.974 163.437C359.016 164.566 358.247 165.762 357.687 166.915C357.118 168.062 356.766 169.222 356.775 170.229C356.772 171.237 357.097 172.018 357.409 172.472C357.73 172.931 358.002 173.09 358.028 173.06Z" fill="#929292"/>
<path d="M364.872 177.237C365.103 177.223 364.141 172.946 365.503 167.895C366.791 162.822 369.724 159.566 369.529 159.44C369.472 159.387 368.666 160.113 367.66 161.54C366.653 162.96 365.513 165.13 364.831 167.719C364.158 170.309 364.088 172.759 364.271 174.49C364.449 176.228 364.797 177.256 364.872 177.237Z" fill="#929292"/>
<path d="M407.801 191.248C407.706 186.284 407.59 182.219 407.59 182.242C407.59 182.242 419.125 180.971 422.312 166.188C423.897 158.836 424.192 146.655 424.111 136.68C424.038 127.702 416.393 115.476 405.308 115.437L400.381 114.864L381.522 122.36C378.798 122.498 376.632 124.697 376.537 127.423L375.971 190.57L391.499 202L402.999 198L407.801 191.248Z" fill="#CFA39C"/>
<path d="M400.137 162.727C400.24 161.948 400.673 161.259 401.225 160.786C402.33 159.839 403.944 159.748 405.127 160.564C406.309 161.38 406.987 163.053 406.764 164.608C406.1 165.52 405.085 166.136 403.961 166.234C403.786 166.249 403.611 166.255 403.435 166.251C402.583 166.229 401.716 165.941 401.065 165.313C400.413 164.684 400.01 163.689 400.137 162.727Z" fill="#97746F"/>
<path d="M416.78 146.894C416.76 147.907 415.887 148.724 414.83 148.723C413.775 148.722 412.933 147.903 412.953 146.89C412.973 145.878 413.846 145.059 414.901 145.06C415.959 145.062 416.8 145.883 416.78 146.894Z" fill="#263238"/>
<path d="M420.44 142.216C420.189 142.453 418.799 141.301 416.74 141.193C414.685 141.056 413.117 142.032 412.907 141.768C412.803 141.65 413.07 141.214 413.753 140.771C414.427 140.33 415.557 139.927 416.838 140.002C418.12 140.08 419.172 140.611 419.766 141.128C420.373 141.647 420.563 142.11 420.44 142.216Z" fill="#263238"/>
<path d="M407.505 157.808C407.502 157.691 408.793 157.54 410.881 157.388C411.409 157.362 411.913 157.285 412.021 156.932C412.166 156.559 411.977 155.98 411.756 155.355C411.332 154.056 410.888 152.694 410.421 151.267C408.576 145.451 407.27 140.679 407.505 140.608C407.74 140.535 409.427 145.191 411.272 151.008C411.714 152.442 412.138 153.808 412.54 155.115C412.706 155.723 413.011 156.42 412.699 157.193C412.536 157.578 412.134 157.842 411.793 157.914C411.45 157.998 411.155 157.988 410.894 157.989C408.802 157.987 407.507 157.925 407.505 157.808Z" fill="#263238"/>
<path d="M407.59 182.242C407.59 182.242 397.521 182.338 387.909 175.818C387.909 175.818 392.663 186.448 407.666 185.871L407.59 182.242Z" fill="#97746F"/>
<path d="M401.37 158.899C401.706 158.898 401.587 161.132 403.413 162.823C405.234 164.519 407.629 164.399 407.63 164.712C407.654 164.854 407.076 165.117 406.069 165.089C405.081 165.069 403.659 164.673 402.542 163.639C401.428 162.603 400.998 161.277 400.972 160.357C400.939 159.418 401.218 158.878 401.37 158.899Z" fill="#263238"/>
<path d="M420.031 134.458C419.657 134.942 418.1 134.519 416.25 134.571C414.399 134.564 412.848 135.024 412.468 134.549C412.3 134.318 412.528 133.839 413.194 133.369C413.85 132.9 414.963 132.494 416.235 132.478C417.507 132.464 418.625 132.842 419.287 133.296C419.961 133.75 420.195 134.223 420.031 134.458Z" fill="#263238"/>
<path d="M392.829 146.349C392.776 147.36 393.588 148.238 394.642 148.313C395.694 148.388 396.593 147.632 396.646 146.621C396.699 145.61 395.887 144.73 394.835 144.656C393.781 144.581 392.883 145.339 392.829 146.349Z" fill="#263238"/>
<path d="M392.235 141.478C392.468 141.732 393.938 140.684 395.999 140.725C398.058 140.737 399.552 141.824 399.78 141.575C399.892 141.465 399.657 141.01 399.008 140.519C398.368 140.03 397.27 139.547 395.986 139.529C394.702 139.514 393.614 139.968 392.985 140.44C392.343 140.916 392.12 141.364 392.235 141.478Z" fill="#263238"/>
<path d="M391.052 137.054C391.45 137.529 393.049 137.071 394.961 137.081C396.873 137.032 398.487 137.457 398.868 136.974C399.036 136.739 398.789 136.266 398.089 135.81C397.4 135.357 396.24 134.975 394.925 134.988C393.611 135.003 392.465 135.407 391.792 135.875C391.107 136.344 390.877 136.822 391.052 137.054Z" fill="#263238"/>
<path d="M379.099 152.485C379.157 151.374 378.017 148.685 376.93 148.454C374.026 147.837 368.734 147.782 368.276 155.218C367.651 165.383 377.985 163.914 378.021 163.623C378.049 163.396 378.898 156.321 379.099 152.485Z" fill="#CFA39C"/>
<path d="M375.445 159.737C375.402 159.702 375.26 159.85 374.953 159.969C374.653 160.084 374.145 160.146 373.627 159.915C372.577 159.455 371.778 157.694 371.842 155.859C371.873 154.932 372.121 154.063 372.493 153.354C372.849 152.63 373.362 152.14 373.909 152.077C374.454 151.985 374.817 152.333 374.924 152.626C375.043 152.919 374.966 153.118 375.018 153.138C375.045 153.166 375.247 152.982 375.191 152.557C375.161 152.352 375.057 152.105 374.83 151.895C374.599 151.682 374.246 151.559 373.867 151.576C373.079 151.582 372.33 152.26 371.92 153.038C371.467 153.817 371.167 154.793 371.132 155.834C371.071 157.886 372.002 159.867 373.445 160.382C374.148 160.612 374.758 160.433 375.081 160.212C375.412 159.982 375.479 159.758 375.445 159.737Z" fill="#97746F"/>
<path d="M376.515 148.483L379.098 151.162C390.251 140.487 412.046 113.759 410.83 115.351C410.83 115.351 403.19 112.209 394.897 113.621C386.604 115.034 370.875 119.184 371.116 128.965C371.357 138.746 376.515 148.483 376.515 148.483Z" fill="#263238"/>
<path d="M361.745 146.239C361.728 146.234 361.781 146.032 361.9 145.651C362.022 145.271 362.239 144.721 362.593 144.048C363.3 142.71 364.652 140.899 366.841 139.268C368.998 137.594 371.988 136.227 375.394 135.154C378.794 134.046 382.627 133.187 386.389 131.571C390.176 130.016 393.552 128.011 396.432 125.946C399.302 123.859 401.671 121.696 403.52 119.749C405.369 117.8 406.713 116.085 407.619 114.885C408.035 114.313 408.373 113.849 408.639 113.484C408.875 113.165 409.006 113.002 409.021 113.011C409.036 113.021 408.934 113.203 408.726 113.542C408.514 113.877 408.213 114.382 407.784 115.003C406.925 116.245 405.618 118.005 403.789 120.001C401.961 121.994 399.597 124.206 396.715 126.334C393.824 128.44 390.418 130.48 386.59 132.052C382.778 133.687 378.918 134.537 375.54 135.611C372.148 136.653 369.206 137.958 367.061 139.564C364.886 141.126 363.521 142.861 362.771 144.147C362.025 145.445 361.798 146.258 361.745 146.239Z" fill="#929292"/>
<path d="M364.704 147.839C364.704 147.839 364.601 147.006 365.098 145.618C365.572 144.24 366.775 142.367 368.917 140.832C371.039 139.247 374.069 138.267 377.399 137.507C380.743 136.769 384.371 135.826 387.939 134.162C391.501 132.512 394.698 130.513 397.336 128.361C399.989 126.225 402.129 124.007 403.778 122.029C405.448 120.062 406.568 118.292 407.37 117.092C407.72 116.514 408.005 116.043 408.232 115.668C408.434 115.345 408.548 115.179 408.564 115.187C408.58 115.195 408.497 115.378 408.324 115.718C408.119 116.106 407.861 116.595 407.544 117.196C406.792 118.434 405.712 120.247 404.064 122.262C402.438 124.287 400.304 126.554 397.639 128.734C394.989 130.929 391.762 132.966 388.156 134.636C384.553 136.318 380.843 137.266 377.508 137.975C374.183 138.707 371.216 139.633 369.13 141.133C367.018 142.589 365.807 144.37 365.287 145.691C364.744 147.02 364.772 147.851 364.704 147.839Z" fill="#929292"/>
<path d="M312.082 230.4C311.509 230.186 310.76 222.095 310.76 222.095C310.76 222.095 302.672 215.628 301.571 212.997C300.47 210.366 300.63 204.101 300.63 204.101L313.877 195.08C313.877 195.08 321.71 202.094 323.759 204.836C324.908 206.375 325.799 210.628 326.36 214.066C326.837 216.992 326.947 219.963 326.692 222.916L326.495 225.196C326.495 225.196 321.165 233.783 312.082 230.4Z" fill="#CFA39C"/>
<path d="M302.178 214.589C302.178 214.589 301.148 213.72 299.47 211.902C297.754 210.044 295.843 208.303 297.46 206.334C298.411 205.175 299.535 205.193 299.535 205.193C299.535 205.193 298.553 203.462 299.405 202.371C300.257 201.28 301.502 201.401 301.502 201.401C301.502 201.401 300.214 198.924 301.403 197.247C302.894 195.144 305.405 195.672 305.405 195.672C305.405 195.672 300.035 184.732 299.708 184.167C298.508 182.096 298.62 179.84 301.022 179.591C301.902 179.5 302.658 180.189 304.945 183.557C307.232 186.925 311.04 192.708 311.04 192.708C311.04 192.708 315.213 196.238 317.296 198.218C319.38 200.198 323.76 204.836 324.486 206.221C326.363 209.804 325.957 215.591 325.957 215.591L310.762 222.095C310.76 222.096 303.159 215.457 302.178 214.589Z" fill="#CFA39C"/>
<path d="M300.017 205.574C300.046 205.536 300.734 206.014 301.823 206.817C302.391 207.243 303.03 207.721 303.725 208.241C304.08 208.511 304.466 208.796 304.814 209.167C305.158 209.53 305.467 210.017 305.531 210.581C305.612 211.129 305.425 211.756 304.966 212.084C304.516 212.425 303.969 212.452 303.514 212.414C303.05 212.374 302.626 212.256 302.246 212.147C301.862 212.038 301.506 211.928 301.184 211.822C300.539 211.61 300.025 211.415 299.675 211.268C299.325 211.121 299.138 211.025 299.146 211.003C299.164 210.955 299.956 211.225 301.255 211.587C301.904 211.747 302.686 212.017 303.539 212.094C303.961 212.122 304.424 212.078 304.76 211.813C305.106 211.56 305.252 211.089 305.189 210.622C305.135 210.15 304.882 209.737 304.566 209.395C304.25 209.052 303.882 208.769 303.532 208.492C302.854 207.95 302.23 207.452 301.676 207.009C300.623 206.158 299.988 205.612 300.017 205.574Z" fill="#97746F"/>
<path d="M313.235 202.332C313.153 202.366 312.672 201.278 312.517 199.834C312.354 198.39 312.586 197.224 312.674 197.24C312.776 197.251 312.702 198.399 312.861 199.796C313.01 201.194 313.331 202.299 313.235 202.332Z" fill="#97746F"/>
<path d="M320.589 203.441C318.692 202.528 316.506 202.327 314.419 202.605C312.332 202.884 310.332 203.621 308.425 204.512C306.898 205.226 305.243 206.285 305.033 207.957C304.818 209.678 306.385 211.231 308.088 211.562C309.791 211.893 311.535 211.301 313.106 210.566C314.678 209.832 316.207 208.937 317.91 208.606" fill="#CFA39C"/>
<path d="M317.91 208.608C317.916 208.637 317.457 208.725 316.674 209.018C315.886 209.303 314.808 209.855 313.462 210.535C312.785 210.867 312.027 211.215 311.168 211.474C310.313 211.728 309.337 211.904 308.316 211.761C307.293 211.628 306.265 211.09 305.558 210.203C305.201 209.765 304.951 209.216 304.865 208.627C304.797 208.036 304.909 207.413 305.203 206.883C305.793 205.805 306.814 205.159 307.768 204.648C308.747 204.155 309.71 203.75 310.653 203.406C312.534 202.719 314.337 202.383 315.857 202.372C317.379 202.353 318.597 202.624 319.395 202.901C319.796 203.037 320.097 203.172 320.296 203.27C320.494 203.372 320.595 203.431 320.59 203.442C320.577 203.472 320.158 203.261 319.355 203.03C318.556 202.796 317.354 202.568 315.863 202.617C314.374 202.659 312.613 203.012 310.763 203.706C309.841 204.052 308.878 204.465 307.926 204.949C306.998 205.448 306.032 206.08 305.509 207.046C305.245 207.52 305.151 208.068 305.207 208.584C305.283 209.1 305.5 209.592 305.825 209.994C306.467 210.808 307.416 211.316 308.361 211.446C309.317 211.589 310.252 211.435 311.087 211.199C311.926 210.959 312.678 210.631 313.356 210.314C314.708 209.666 315.819 209.14 316.629 208.891C317.032 208.761 317.354 208.689 317.572 208.646C317.792 208.609 317.908 208.596 317.91 208.608Z" fill="#97746F"/>
<path d="M300.194 205.711C302.722 207.601 305.148 209.807 307.474 211.941C308.151 212.562 308.866 213.218 309.765 213.406C310.485 213.556 311.708 212.371 312.281 211.91L304.114 203.326" fill="#CFA39C"/>
<path d="M304.114 203.326C304.13 203.311 304.367 203.53 304.787 203.943C305.243 204.403 305.835 204.999 306.551 205.721C308.038 207.24 310.095 209.371 312.406 211.792L312.534 211.925L312.39 212.044C311.968 212.391 311.527 212.798 311.017 213.141C310.815 213.274 310.605 213.4 310.368 213.491C310.25 213.536 310.126 213.576 309.986 213.585C309.849 213.604 309.694 213.569 309.588 213.541C309.115 213.416 308.7 213.172 308.336 212.901C307.614 212.344 307.026 211.735 306.419 211.193C305.225 210.091 304.14 209.109 303.216 208.3C302.293 207.49 301.53 206.853 301.001 206.414C300.472 205.975 300.179 205.733 300.194 205.712C300.207 205.695 300.528 205.9 301.084 206.308C301.64 206.715 302.429 207.325 303.375 208.114C304.323 208.901 305.427 209.866 306.634 210.957C307.245 211.491 307.854 212.108 308.538 212.628C308.883 212.882 309.262 213.099 309.676 213.208C310.041 213.336 310.446 213.095 310.823 212.854C311.305 212.53 311.734 212.138 312.173 211.777L312.156 212.029C309.854 209.601 307.827 207.441 306.384 205.88C305.698 205.129 305.132 204.508 304.696 204.03C304.305 203.589 304.098 203.341 304.114 203.326Z" fill="#97746F"/>
<path d="M301.811 200.731C304.557 203.825 307.303 206.919 310.049 210.013C310.632 210.67 311.23 211.339 311.997 211.768C312.763 212.197 313.743 212.348 314.516 211.931C315.582 211.356 315.887 209.895 315.534 208.737C315.181 207.579 314.335 206.648 313.537 205.738C311.054 202.909 308.79 199.888 306.773 196.71" fill="#CFA39C"/>
<path d="M306.773 196.71C306.783 196.704 306.861 196.804 307.001 197.001C307.161 197.231 307.36 197.517 307.603 197.867C308.127 198.618 308.886 199.703 309.874 201.007C310.861 202.311 312.076 203.834 313.504 205.457C314.205 206.269 315.035 207.103 315.529 208.232C315.777 208.788 315.898 209.437 315.824 210.072C315.754 210.703 315.501 211.36 314.984 211.814C314.468 212.273 313.748 212.416 313.115 212.323C312.474 212.239 311.886 211.95 311.405 211.581C310.439 210.826 309.768 209.9 309.033 209.107C307.613 207.486 306.33 206.021 305.24 204.778C304.194 203.565 303.336 202.57 302.706 201.839C302.433 201.512 302.209 201.244 302.03 201.029C301.878 200.841 301.803 200.739 301.812 200.731C301.821 200.723 301.914 200.81 302.082 200.983C302.274 201.187 302.514 201.44 302.807 201.75C303.458 202.463 304.344 203.433 305.424 204.616C306.53 205.846 307.832 207.294 309.272 208.896C310.011 209.683 310.705 210.614 311.608 211.31C312.061 211.654 312.589 211.907 313.16 211.982C313.725 212.063 314.326 211.936 314.756 211.554C315.189 211.177 315.418 210.603 315.482 210.035C315.548 209.458 315.446 208.888 315.217 208.366C314.764 207.315 313.965 206.489 313.263 205.667C311.842 204.025 310.642 202.48 309.677 201.153C308.711 199.826 307.98 198.716 307.49 197.941C307.247 197.552 307.061 197.248 306.941 197.038C306.821 196.83 306.763 196.717 306.773 196.71Z" fill="#97746F"/>
<path d="M319.34 218.011C319.349 218.049 318.986 218.186 318.364 218.225C317.746 218.267 316.869 218.171 315.986 217.804C315.104 217.434 314.419 216.878 314.014 216.408C313.605 215.938 313.447 215.584 313.48 215.563C313.56 215.49 314.419 216.794 316.119 217.484C317.805 218.208 319.336 217.902 319.34 218.011Z" fill="#97746F"/>
<path d="M424.128 191.837L421.25 228.176C421.148 229.469 420.025 230.441 418.731 230.356L398.476 229.041C397.144 228.954 396.145 227.787 396.267 226.458L399.577 190.145C399.694 188.864 400.81 187.909 402.094 187.993L421.917 189.281C423.238 189.368 424.233 190.518 424.128 191.837Z" fill="#279D69"/>
<path d="M453.115 238.098C453.115 238.098 459.167 278.981 458.928 284.475C458.689 289.968 452.48 302.149 444.12 303.343C435.761 304.537 427.879 296.894 427.64 286.863C427.401 276.832 426.163 245.106 426.163 245.106L432.402 241.669L453.115 238.098Z" fill="#CFA39C"/>
<path d="M418.668 204.317C418.668 204.317 424.934 208.171 426.783 209.176C428.632 210.181 428.394 217.649 428.394 217.649L438.932 242.149L426.225 246.701C426.225 246.701 421.702 238.13 420.402 237.046C419.101 235.962 417.368 235.529 417.368 235.529C417.368 235.529 416.718 237.913 414.767 236.83C412.816 235.746 410.649 233.145 410.649 233.145C410.649 233.145 408.915 234.229 408.265 232.928C407.615 231.628 406.531 228.81 406.531 228.81C406.531 228.81 410.216 224.041 411.733 224.041C413.25 224.041 421.053 224.475 421.053 224.475C421.053 224.475 420.619 223.825 418.452 222.958C416.284 222.091 403.377 218.294 402.771 218.06C401.865 217.709 400.838 215.337 403.656 215.12C406.474 214.903 422.35 217.739 422.35 217.739C422.35 217.739 423.22 213.638 422.57 212.771C421.919 211.903 416.284 208.218 418.668 204.317Z" fill="#CFA39C"/>
<path d="M410.632 232.95C410.589 232.946 410.487 232.274 410.684 231.167C410.801 230.623 411.045 229.944 411.64 229.413C412.248 228.858 413.156 228.748 413.968 228.706C415.64 228.599 417.158 228.707 418.24 228.863C419.323 229.019 419.976 229.204 419.965 229.264C419.944 229.409 417.282 228.963 413.998 229.177C413.179 229.218 412.416 229.316 411.921 229.744C411.416 230.163 411.154 230.752 411.007 231.248C410.741 232.266 410.716 232.96 410.632 232.95Z" fill="#97746F"/>
<path d="M413.145 233.733C413.229 233.624 414.231 234.298 415.581 234.88C416.927 235.473 418.103 235.748 418.08 235.884C418.068 236.006 416.804 235.933 415.392 235.312C413.978 234.702 413.064 233.826 413.145 233.733Z" fill="#97746F"/>
<path d="M421.625 217.649C421.642 217.528 422.834 217.753 423.865 218.76C424.906 219.758 425.17 220.942 425.049 220.962C424.919 221.012 424.487 220.002 423.537 219.099C422.603 218.18 421.579 217.781 421.625 217.649Z" fill="#97746F"/>
<path d="M313.42 436.421C313.28 436.387 318.741 413.426 325.616 385.143C332.493 356.85 338.179 333.949 338.319 333.983C338.459 334.017 332.999 356.973 326.122 385.266C319.247 413.549 313.56 436.455 313.42 436.421Z" fill="#279D69"/>
<path d="M463.073 469.797C463.073 469.941 367.668 470.057 250.008 470.057C132.307 470.057 36.923 469.94 36.923 469.797C36.923 469.654 132.307 469.537 250.008 469.537C367.669 469.536 463.073 469.653 463.073 469.797Z" fill="#263238"/>
<path d="M413.396 109.178L416.335 98.565C413.558 94.057 411.953 88.751 411.953 83.068C411.953 66.725 425.201 53.477 441.544 53.477C457.887 53.477 471.135 66.725 471.135 83.068C471.135 99.41 457.887 112.659 441.544 112.659C434.72 112.659 428.44 110.343 423.435 106.462L423.445 106.475L413.396 109.178Z" fill="white"/>
<path d="M413.396 109.178C413.396 109.178 413.629 109.105 414.066 108.981C414.52 108.853 415.161 108.672 415.996 108.436C417.698 107.961 420.185 107.267 423.416 106.365L423.355 106.546C423.355 106.546 423.348 106.538 423.345 106.533C423.306 106.483 423.315 106.411 423.365 106.372C423.407 106.339 423.466 106.342 423.506 106.372C426.594 108.727 431.134 111.246 437.016 112.132C439.937 112.592 443.168 112.603 446.502 112.011C449.833 111.433 453.276 110.24 456.509 108.309C459.74 106.386 462.754 103.729 465.177 100.428C467.598 97.134 469.434 93.195 470.302 88.901C471.142 84.608 471.045 79.992 469.865 75.536C469.323 73.292 468.373 71.147 467.312 69.049C466.115 67.027 464.821 65.011 463.151 63.283C461.585 61.497 459.729 60.027 457.834 58.68C455.864 57.446 453.84 56.307 451.678 55.571C447.401 53.988 442.864 53.459 438.552 53.879C434.238 54.326 430.172 55.728 426.681 57.788C423.183 59.845 420.257 62.548 418.021 65.536C413.513 71.542 411.884 78.54 412.162 84.411C412.41 90.34 414.388 95.149 416.435 98.505C416.453 98.533 416.456 98.568 416.448 98.598C415.469 102.01 414.715 104.637 414.2 106.434C413.944 107.316 413.748 107.994 413.609 108.472C413.475 108.932 413.396 109.178 413.396 109.178C413.396 109.178 413.445 108.962 413.563 108.513C413.688 108.039 413.865 107.369 414.095 106.496C414.583 104.67 415.296 102.001 416.222 98.534L416.235 98.627C414.137 95.268 412.098 90.423 411.812 84.425C411.496 78.488 413.113 71.382 417.668 65.27C419.927 62.229 422.89 59.476 426.44 57.377C429.982 55.276 434.114 53.841 438.501 53.38C442.885 52.946 447.502 53.478 451.856 55.086C454.057 55.835 456.118 56.991 458.122 58.247C460.051 59.616 461.939 61.113 463.534 62.929C465.233 64.688 466.551 66.739 467.767 68.798C468.847 70.933 469.811 73.118 470.362 75.402C471.56 79.938 471.652 84.632 470.791 88.998C469.901 93.365 468.026 97.366 465.558 100.707C463.088 104.055 460.019 106.745 456.733 108.686C453.445 110.635 449.946 111.831 446.568 112.402C443.186 112.986 439.915 112.958 436.962 112.475C431.014 111.542 426.45 108.96 423.364 106.553L423.526 106.392C423.529 106.397 423.536 106.405 423.536 106.405C423.575 106.455 423.566 106.527 423.516 106.565C423.504 106.574 423.488 106.582 423.474 106.586C420.19 107.436 417.663 108.09 415.933 108.538C415.108 108.749 414.473 108.911 414.024 109.025C413.601 109.134 413.396 109.178 413.396 109.178Z" fill="#263238"/>
<path d="M428.309 83.787L431.772 80.323L438.452 86.261L451.565 73.643L454.781 77.107L437.957 92.941L428.309 83.787Z" fill="#FFC339"/>
<path d="M217.363 186V177.54H221.035C221.963 177.54 222.679 177.764 223.183 178.212C223.687 178.652 223.939 179.272 223.939 180.072C223.939 180.592 223.823 181.04 223.591 181.416C223.367 181.792 223.039 182.08 222.607 182.28C222.175 182.48 221.651 182.58 221.035 182.58L221.143 182.4H221.539C221.867 182.4 222.151 182.48 222.391 182.64C222.639 182.8 222.855 183.052 223.039 183.396L224.455 186H222.763L221.299 183.3C221.203 183.124 221.095 182.988 220.975 182.892C220.855 182.788 220.719 182.716 220.567 182.676C220.415 182.636 220.239 182.616 220.039 182.616H218.899V186H217.363ZM218.899 181.476H220.771C221.323 181.476 221.739 181.364 222.019 181.14C222.307 180.908 222.451 180.564 222.451 180.108C222.451 179.66 222.307 179.324 222.019 179.1C221.739 178.868 221.323 178.752 220.771 178.752H218.899V181.476ZM225.59 186V177.54H231.218V178.764H227.066V181.092H230.954V182.316H227.066V184.776H231.218V186H225.59ZM236.806 186.12C235.87 186.12 235.078 185.944 234.43 185.592C233.79 185.24 233.302 184.74 232.966 184.092C232.63 183.444 232.462 182.676 232.462 181.788C232.462 180.892 232.634 180.12 232.978 179.472C233.322 178.816 233.818 178.312 234.466 177.96C235.114 177.6 235.89 177.42 236.794 177.42C237.194 177.42 237.574 177.46 237.934 177.54C238.302 177.612 238.642 177.72 238.954 177.864C239.266 178.008 239.534 178.184 239.758 178.392L239.242 179.592C238.866 179.296 238.482 179.084 238.09 178.956C237.698 178.828 237.266 178.764 236.794 178.764C235.898 178.764 235.218 179.024 234.754 179.544C234.298 180.064 234.07 180.812 234.07 181.788C234.07 182.772 234.306 183.52 234.778 184.032C235.25 184.544 235.95 184.8 236.878 184.8C237.198 184.8 237.522 184.768 237.85 184.704C238.178 184.64 238.498 184.552 238.81 184.44L238.51 185.124V182.568H236.566V181.428H239.794V185.496C239.538 185.624 239.242 185.736 238.906 185.832C238.578 185.92 238.234 185.988 237.874 186.036C237.514 186.092 237.158 186.12 236.806 186.12ZM241.574 186V177.54H243.11V186H241.574ZM247.865 186.12C247.425 186.12 247.001 186.08 246.593 186C246.193 185.928 245.821 185.82 245.477 185.676C245.141 185.532 244.841 185.36 244.577 185.16L245.045 183.948C245.309 184.132 245.585 184.292 245.873 184.428C246.169 184.556 246.481 184.656 246.809 184.728C247.145 184.792 247.497 184.824 247.865 184.824C248.497 184.824 248.957 184.72 249.245 184.512C249.533 184.296 249.677 184.02 249.677 183.684C249.677 183.5 249.633 183.344 249.545 183.216C249.457 183.08 249.313 182.964 249.113 182.868C248.913 182.772 248.649 182.692 248.321 182.628L247.001 182.352C246.241 182.192 245.673 181.924 245.297 181.548C244.929 181.164 244.745 180.66 244.745 180.036C244.745 179.508 244.885 179.048 245.165 178.656C245.445 178.264 245.833 177.96 246.329 177.744C246.825 177.528 247.397 177.42 248.045 177.42C248.429 177.42 248.797 177.46 249.149 177.54C249.509 177.612 249.837 177.724 250.133 177.876C250.437 178.02 250.701 178.196 250.925 178.404L250.457 179.556C250.121 179.276 249.753 179.068 249.353 178.932C248.953 178.788 248.513 178.716 248.033 178.716C247.665 178.716 247.349 178.768 247.085 178.872C246.821 178.976 246.617 179.124 246.473 179.316C246.337 179.5 246.269 179.72 246.269 179.976C246.269 180.264 246.365 180.496 246.557 180.672C246.749 180.84 247.077 180.972 247.541 181.068L248.849 181.344C249.641 181.512 250.229 181.776 250.613 182.136C251.005 182.496 251.201 182.976 251.201 183.576C251.201 184.08 251.065 184.524 250.793 184.908C250.521 185.292 250.133 185.592 249.629 185.808C249.133 186.016 248.545 186.12 247.865 186.12ZM254.384 186V178.824H251.48V177.54H258.824V178.824H255.92V186H254.384ZM259.797 186V177.54H265.425V178.764H261.273V181.092H265.161V182.316H261.273V184.776H265.425V186H259.797ZM266.957 186V177.54H270.629C271.557 177.54 272.273 177.764 272.777 178.212C273.281 178.652 273.533 179.272 273.533 180.072C273.533 180.592 273.417 181.04 273.185 181.416C272.961 181.792 272.633 182.08 272.201 182.28C271.769 182.48 271.245 182.58 270.629 182.58L270.737 182.4H271.133C271.461 182.4 271.745 182.48 271.985 182.64C272.233 182.8 272.449 183.052 272.633 183.396L274.049 186H272.357L270.893 183.3C270.797 183.124 270.689 182.988 270.569 182.892C270.449 182.788 270.313 182.716 270.161 182.676C270.009 182.636 269.833 182.616 269.633 182.616H268.493V186H266.957ZM268.493 181.476H270.365C270.917 181.476 271.333 181.364 271.613 181.14C271.901 180.908 272.045 180.564 272.045 180.108C272.045 179.66 271.901 179.324 271.613 179.1C271.333 178.868 270.917 178.752 270.365 178.752H268.493V181.476ZM275.184 186V177.54H280.812V178.764H276.66V181.092H280.548V182.316H276.66V184.776H280.812V186H275.184ZM282.344 186V177.54H285.488C286.432 177.54 287.232 177.704 287.888 178.032C288.552 178.36 289.056 178.84 289.4 179.472C289.752 180.096 289.928 180.86 289.928 181.764C289.928 182.668 289.752 183.436 289.4 184.068C289.056 184.7 288.552 185.18 287.888 185.508C287.232 185.836 286.432 186 285.488 186H282.344ZM283.88 184.728H285.392C286.376 184.728 287.108 184.484 287.588 183.996C288.076 183.5 288.32 182.756 288.32 181.764C288.32 180.772 288.076 180.032 287.588 179.544C287.1 179.056 286.368 178.812 285.392 178.812H283.88V184.728Z" fill="#FFC339"/>
</svg>
